<?xml version="1.0" standalone="no"?>
<svg viewBox="0 0 200 200" xmlns="http://www.w3.org/2000/svg">
  <path fill="#FFCE6D" d="M27.7,-45.9C35.2,-38.2,40.3,-29.5,49.9,-19.5C59.4,-9.6,73.4,1.5,67.4,6.3C61.4,11.1,35.4,9.7,24.2,18.7C12.9,27.7,16.2,47.2,12.8,52.2C9.3,57.1,-0.9,47.5,-7.4,39.2C-13.9,30.9,-16.7,23.9,-18.8,18.2C-20.8,12.4,-22.1,7.9,-31.3,-0.6C-40.5,-9.1,-57.6,-21.6,-61.8,-34.8C-66,-47.9,-57.3,-61.7,-44.8,-67.2C-32.4,-72.7,-16.2,-69.8,-3.1,-65C10,-60.3,20.1,-53.6,27.7,-45.9Z" transform="translate(100 100)" />
</svg>
