<?xml version="1.0" standalone="no"?>
<svg viewBox="0 0 200 200" xmlns="http://www.w3.org/2000/svg">
  <path fill="#51ABB2" d="M39.6,-65.5C49.4,-55.3,54.3,-41.1,62.5,-27.3C70.8,-13.5,82.4,0,80.9,11.8C79.4,23.5,64.8,33.5,50.9,37.2C37,41,23.8,38.5,13.1,39.4C2.3,40.2,-5.9,44.3,-15.9,45.4C-25.9,46.5,-37.5,44.5,-50.1,38.6C-62.6,32.7,-76.1,22.8,-73.1,13.3C-70.2,3.8,-50.9,-5.3,-44.1,-20.1C-37.3,-34.9,-43.1,-55.5,-37.8,-67.9C-32.6,-80.2,-16.3,-84.4,-0.7,-83.3C14.9,-82.2,29.7,-75.8,39.6,-65.5Z" transform="translate(100 100)" />
</svg>
