<?xml version="1.0" standalone="no"?>
<svg viewBox="0 0 200 200" xmlns="http://www.w3.org/2000/svg">
  <path fill="#F7B9A1" d="M29.4,-42.9C41.1,-38.2,55.7,-35.2,55.8,-27.6C55.9,-20.1,41.5,-8.1,33.2,0.2C24.9,8.5,22.7,13.1,20.2,19.4C17.7,25.6,14.9,33.4,10.3,34.5C5.7,35.7,-0.7,30,-13.7,32.7C-26.7,35.3,-46.3,46.2,-59.6,44.2C-72.9,42.2,-80,27.4,-83,11.5C-86,-4.4,-85,-21.4,-74.7,-30C-64.4,-38.6,-44.7,-38.8,-30.7,-42.5C-16.7,-46.1,-8.4,-53.2,0.2,-53.5C8.8,-53.9,17.7,-47.6,29.4,-42.9Z" transform="translate(100 100)" />
</svg>
