<?xml version="1.0" standalone="no"?>
<svg viewBox="0 0 200 200" xmlns="http://www.w3.org/2000/svg">
  <path fill="#ED5B2D" d="M28.6,-43.7C40,-37.3,54,-34.2,56,-26.6C57.9,-18.9,47.8,-6.8,40.9,2.3C34,11.4,30.4,17.3,24.5,17.4C18.5,17.4,10.1,11.5,3.9,13.5C-2.3,15.4,-6.3,25.2,-15.5,32C-24.7,38.8,-39.2,42.7,-49.9,38.6C-60.7,34.6,-67.7,22.7,-60.7,14C-53.8,5.3,-32.9,-0.1,-28.3,-14.1C-23.8,-28.2,-35.6,-51,-33.6,-61.6C-31.6,-72.3,-15.8,-70.9,-3.6,-65.4C8.6,-59.8,17.3,-50.1,28.6,-43.7Z" transform="translate(100 100)" />
</svg>
