<?xml version="1.0" standalone="no"?>
<svg viewBox="0 0 200 200" xmlns="http://www.w3.org/2000/svg">
  <path fill="#51ABB2" d="M26,-48.7C31.1,-37.3,30.6,-25.5,33.1,-16.2C35.7,-6.9,41.2,-0.1,44.3,9.2C47.3,18.5,47.9,30.3,42.8,38.1C37.6,46,26.7,49.9,15.2,54.6C3.6,59.3,-8.5,64.9,-21.4,64.8C-34.3,64.7,-47.9,59,-51.4,48.3C-54.8,37.5,-48.1,21.7,-45,9.6C-41.8,-2.5,-42.3,-11,-39,-17.7C-35.8,-24.5,-29,-29.5,-21.9,-39.9C-14.8,-50.4,-7.4,-66.4,1.6,-68.8C10.5,-71.3,21,-60.2,26,-48.7Z" transform="translate(100 100)" />
</svg>
