<?xml version="1.0" standalone="no"?>
<svg viewBox="0 0 200 200" xmlns="http://www.w3.org/2000/svg">
  <path fill="#ED5B2D" d="M37.7,-61.5C45.8,-53.6,46.9,-37.8,47.6,-25C48.2,-12.3,48.4,-2.7,40.6,1.2C32.8,5,17,3,12.6,14.4C8.1,25.7,15.1,50.3,10.5,65C5.9,79.8,-10.2,84.7,-16.3,74.4C-22.4,64,-18.5,38.4,-17.4,23.9C-16.3,9.4,-17.8,6.1,-24.3,-0.1C-30.8,-6.3,-42.2,-15.4,-42.3,-21.1C-42.4,-26.7,-31.3,-29,-22.3,-36.5C-13.4,-43.9,-6.7,-56.6,4.1,-63C14.9,-69.4,29.7,-69.4,37.7,-61.5Z" transform="translate(100 100)" />
</svg>
