<?xml version="1.0" standalone="no"?>
<svg viewBox="0 0 200 200" xmlns="http://www.w3.org/2000/svg">
  <path fill="#F7B9A1" d="M29.6,-39.1C40.7,-39,53.5,-34.6,54,-26.7C54.4,-18.7,42.5,-7.2,43.3,8.2C44.2,23.5,57.8,42.7,55.4,51.1C52.9,59.4,34.5,57,21,52.1C7.5,47.2,-1,39.9,-10.1,36.4C-19.2,32.9,-28.9,33.2,-33,28.5C-37.1,23.9,-35.5,14.4,-42.4,2.7C-49.4,-8.9,-64.7,-22.8,-60.7,-26.1C-56.6,-29.4,-33.2,-22.2,-19.8,-21.3C-6.4,-20.4,-3.2,-25.8,3,-30.5C9.3,-35.2,18.5,-39.3,29.6,-39.1Z" transform="translate(100 100)" />
</svg>
