<?xml version="1.0" standalone="no"?>
<svg viewBox="0 0 200 200" xmlns="http://www.w3.org/2000/svg">
  <path fill="#FFCE6D" d="M19.1,-34.5C22.9,-27.3,22.9,-18.9,23.6,-12.3C24.3,-5.7,25.6,-0.9,23.6,2.4C21.6,5.7,16.2,7.6,15.9,21.2C15.7,34.9,20.4,60.4,15.1,70.9C9.8,81.4,-5.7,76.8,-15.9,67.7C-26.1,58.5,-31.1,44.9,-29.9,33.2C-28.7,21.5,-21.3,11.7,-23.8,2.6C-26.4,-6.5,-38.8,-14.9,-38.6,-18.6C-38.4,-22.2,-25.6,-21.1,-17.1,-26.2C-8.5,-31.3,-4.3,-42.7,1.7,-45.4C7.6,-48,15.3,-41.8,19.1,-34.5Z" transform="translate(100 100)" />
</svg>
