<?xml version="1.0" standalone="no"?><svg xmlns="http://www.w3.org/2000/svg" viewBox="0 0 1440 320"><path fill="#ffce6d" fill-opacity="1" d="M0,288L26.7,277.3C53.3,267,107,245,160,240C213.3,235,267,245,320,250.7C373.3,256,427,256,480,229.3C533.3,203,587,149,640,133.3C693.3,117,747,139,800,160C853.3,181,907,203,960,229.3C1013.3,256,1067,288,1120,282.7C1173.3,277,1227,235,1280,202.7C1333.3,171,1387,149,1413,138.7L1440,128L1440,320L1413.3,320C1386.7,320,1333,320,1280,320C1226.7,320,1173,320,1120,320C1066.7,320,1013,320,960,320C906.7,320,853,320,800,320C746.7,320,693,320,640,320C586.7,320,533,320,480,320C426.7,320,373,320,320,320C266.7,320,213,320,160,320C106.7,320,53,320,27,320L0,320Z"></path></svg>