<?xml version="1.0" standalone="no"?><svg xmlns="http://www.w3.org/2000/svg" viewBox="0 0 1440 320"><path fill="#ffce6d" fill-opacity="1" d="M0,128L26.7,138.7C53.3,149,107,171,160,197.3C213.3,224,267,256,320,256C373.3,256,427,224,480,181.3C533.3,139,587,85,640,85.3C693.3,85,747,139,800,154.7C853.3,171,907,149,960,144C1013.3,139,1067,149,1120,160C1173.3,171,1227,181,1280,202.7C1333.3,224,1387,256,1413,272L1440,288L1440,0L1413.3,0C1386.7,0,1333,0,1280,0C1226.7,0,1173,0,1120,0C1066.7,0,1013,0,960,0C906.7,0,853,0,800,0C746.7,0,693,0,640,0C586.7,0,533,0,480,0C426.7,0,373,0,320,0C266.7,0,213,0,160,0C106.7,0,53,0,27,0L0,0Z"></path></svg>