<?xml version="1.0" standalone="no"?><svg xmlns="http://www.w3.org/2000/svg" viewBox="0 0 1440 320"><path fill="#51ABB2" fill-opacity="1" d="M0,256L26.7,250.7C53.3,245,107,235,160,240C213.3,245,267,267,320,240C373.3,213,427,139,480,101.3C533.3,64,587,64,640,101.3C693.3,139,747,213,800,224C853.3,235,907,181,960,149.3C1013.3,117,1067,107,1120,133.3C1173.3,160,1227,224,1280,224C1333.3,224,1387,160,1413,128L1440,96L1440,320L1413.3,320C1386.7,320,1333,320,1280,320C1226.7,320,1173,320,1120,320C1066.7,320,1013,320,960,320C906.7,320,853,320,800,320C746.7,320,693,320,640,320C586.7,320,533,320,480,320C426.7,320,373,320,320,320C266.7,320,213,320,160,320C106.7,320,53,320,27,320L0,320Z"></path></svg>